<svg xmlns="http://www.w3.org/2000/svg" xmlns:xlink="http://www.w3.org/1999/xlink" width="794" zoomAndPan="magnify" viewBox="0 0 595.5 842.249979" height="1123" preserveAspectRatio="xMidYMid meet" version="1.0"><defs><filter x="0%" y="0%" width="100%" height="100%" id="8ec7b84c07"><feColorMatrix values="0 0 0 0 1 0 0 0 0 1 0 0 0 0 1 0 0 0 1 0" color-interpolation-filters="sRGB"/></filter><g/><clipPath id="754197f9ee"><path d="M 186 0.765625 L 414.527344 0.765625 L 414.527344 229 L 186 229 Z M 186 0.765625 " clip-rule="nonzero"/></clipPath><mask id="ed4bb2b10d"><g filter="url(#8ec7b84c07)"><rect x="-221.01" width="857.52" fill="#000000" y="-448.294995" height="1212.839969" fill-opacity="0.72"/></g></mask><clipPath id="a53d48830d"><path d="M 0.949219 0.878906 L 228.457031 0.878906 L 228.457031 228.390625 L 0.949219 228.390625 Z M 0.949219 0.878906 " clip-rule="nonzero"/></clipPath><clipPath id="77516132c1"><path d="M 114.703125 0.878906 C 51.878906 0.878906 0.949219 51.808594 0.949219 114.636719 C 0.949219 177.460938 51.878906 228.390625 114.703125 228.390625 C 177.527344 228.390625 228.457031 177.460938 228.457031 114.636719 C 228.457031 51.808594 177.527344 0.878906 114.703125 0.878906 Z M 114.703125 0.878906 " clip-rule="nonzero"/></clipPath><clipPath id="729b067e9e"><path d="M 0.949219 0.878906 L 228.457031 0.878906 L 228.457031 228.390625 L 0.949219 228.390625 Z M 0.949219 0.878906 " clip-rule="nonzero"/></clipPath><clipPath id="79b50c974f"><path d="M 114.703125 0.878906 C 51.878906 0.878906 0.949219 51.808594 0.949219 114.636719 C 0.949219 177.460938 51.878906 228.390625 114.703125 228.390625 C 177.527344 228.390625 228.457031 177.460938 228.457031 114.636719 C 228.457031 51.808594 177.527344 0.878906 114.703125 0.878906 Z M 114.703125 0.878906 " clip-rule="nonzero"/></clipPath><clipPath id="e536525d06"><rect x="0" width="229" y="0" height="229"/></clipPath><clipPath id="628db44e04"><rect x="0" width="229" y="0" height="229"/></clipPath><clipPath id="d101cb7797"><path d="M 78 0.765625 L 316 0.765625 L 316 229 L 78 229 Z M 78 0.765625 " clip-rule="nonzero"/></clipPath><mask id="4b9708d40f"><g filter="url(#8ec7b84c07)"><rect x="-221.01" width="857.52" fill="#000000" y="-448.294995" height="1212.839969" fill-opacity="0.7"/></g></mask><clipPath id="67efbad208"><path d="M 0.433594 0.878906 L 236.828125 0.878906 L 236.828125 228.390625 L 0.433594 228.390625 Z M 0.433594 0.878906 " clip-rule="nonzero"/></clipPath><clipPath id="9a246ac353"><path d="M 118.59375 0.878906 C 53.335938 0.878906 0.433594 51.808594 0.433594 114.636719 C 0.433594 177.460938 53.335938 228.390625 118.59375 228.390625 C 183.851562 228.390625 236.753906 177.460938 236.753906 114.636719 C 236.753906 51.808594 183.851562 0.878906 118.59375 0.878906 Z M 118.59375 0.878906 " clip-rule="nonzero"/></clipPath><clipPath id="99d78b2e7f"><path d="M 0.433594 0.878906 L 236.773438 0.878906 L 236.773438 228.390625 L 0.433594 228.390625 Z M 0.433594 0.878906 " clip-rule="nonzero"/></clipPath><clipPath id="2d82da05bf"><path d="M 118.59375 0.878906 C 53.335938 0.878906 0.433594 51.808594 0.433594 114.636719 C 0.433594 177.460938 53.335938 228.390625 118.59375 228.390625 C 183.851562 228.390625 236.753906 177.460938 236.753906 114.636719 C 236.753906 51.808594 183.851562 0.878906 118.59375 0.878906 Z M 118.59375 0.878906 " clip-rule="nonzero"/></clipPath><clipPath id="2c88ba72d7"><rect x="0" width="237" y="0" height="229"/></clipPath><clipPath id="52a2959d90"><rect x="0" width="238" y="0" height="229"/></clipPath><mask id="04d3835a4e"><g filter="url(#8ec7b84c07)"><rect x="-221.01" width="857.52" fill="#000000" y="-448.294995" height="1212.839969" fill-opacity="0.94"/></g></mask><clipPath id="60280b42e4"><path d="M 0.621094 0.957031 L 329.609375 0.957031 L 329.609375 133.558594 L 0.621094 133.558594 Z M 0.621094 0.957031 " clip-rule="nonzero"/></clipPath><clipPath id="fa93eea99f"><rect x="0" width="330" y="0" height="134"/></clipPath><clipPath id="a135f99697"><rect x="0" width="330" y="0" height="134"/></clipPath><clipPath id="caba79984f"><path d="M 0.414062 35 L 264 35 L 264 310.328125 L 0.414062 310.328125 Z M 0.414062 35 " clip-rule="nonzero"/></clipPath><clipPath id="734d9ed48f"><rect x="0" width="264" y="0" height="276"/></clipPath><clipPath id="916552cf68"><rect x="0" width="415" y="0" height="311"/></clipPath></defs><g transform="matrix(1, 0, 0, 1, 90, 263)"><g clip-path="url(#916552cf68)"><g clip-path="url(#754197f9ee)"><g mask="url(#ed4bb2b10d)"><g transform="matrix(1, 0, 0, 1, 186, 0)"><g clip-path="url(#628db44e04)"><g clip-path="url(#a53d48830d)"><g clip-path="url(#77516132c1)"><g><g clip-path="url(#e536525d06)"><g clip-path="url(#729b067e9e)"><g clip-path="url(#79b50c974f)"><path fill="#a58358" d="M 0.949219 0.878906 L 228.457031 0.878906 L 228.457031 228.390625 L 0.949219 228.390625 Z M 0.949219 0.878906 " fill-opacity="1" fill-rule="nonzero"/></g></g></g></g></g></g></g></g></g></g><g clip-path="url(#d101cb7797)"><g mask="url(#4b9708d40f)"><g transform="matrix(1, 0, 0, 1, 78, 0)"><g clip-path="url(#52a2959d90)"><g clip-path="url(#67efbad208)"><g clip-path="url(#9a246ac353)"><g transform="matrix(1, 0, 0, 1, 0.000000000000028422, 0)"><g clip-path="url(#2c88ba72d7)"><g clip-path="url(#99d78b2e7f)"><g clip-path="url(#2d82da05bf)"><path fill="#cbb79d" d="M 0.433594 0.878906 L 236.828125 0.878906 L 236.828125 228.390625 L 0.433594 228.390625 Z M 0.433594 0.878906 " fill-opacity="1" fill-rule="nonzero"/></g></g></g></g></g></g></g></g></g></g><g mask="url(#04d3835a4e)"><g transform="matrix(1, 0, 0, 1, 83, 54)"><g clip-path="url(#a135f99697)"><g clip-path="url(#60280b42e4)"><g><g clip-path="url(#fa93eea99f)"><g fill="#ffffff" fill-opacity="1"><g transform="translate(0.777805, 111.007389)"><g><path d="M 73.65625 -87.8125 L 73.65625 -71.453125 L 48.84375 -71.453125 L 48.84375 0 L 32.484375 0 L 32.484375 -71.453125 L 7.6875 -71.453125 L 7.6875 -87.8125 Z M 73.65625 -87.8125 "/></g></g></g><g fill="#ffffff" fill-opacity="1"><g transform="translate(78.705407, 111.007389)"><g><path d="M 72 -24.484375 L 84.40625 -12.1875 C 80.382812 -8.15625 75.628906 -4.953125 70.140625 -2.578125 C 64.648438 -0.203125 58.796875 0.984375 52.578125 0.984375 C 46.359375 0.984375 40.539062 -0.179688 35.125 -2.515625 C 29.707031 -4.859375 24.945312 -8.078125 20.84375 -12.171875 C 16.75 -16.273438 13.53125 -21.035156 11.1875 -26.453125 C 8.851562 -31.867188 7.6875 -37.6875 7.6875 -43.90625 C 7.6875 -50.125 8.851562 -55.941406 11.1875 -61.359375 C 13.53125 -66.773438 16.75 -71.53125 20.84375 -75.625 C 24.945312 -79.726562 29.707031 -82.945312 35.125 -85.28125 C 40.539062 -87.625 46.359375 -88.796875 52.578125 -88.796875 C 58.796875 -88.796875 64.648438 -87.625 70.140625 -85.28125 C 75.628906 -82.945312 80.382812 -79.726562 84.40625 -75.625 L 72 -63.328125 C 69.738281 -66.035156 66.941406 -68.15625 63.609375 -69.6875 C 60.273438 -71.226562 56.597656 -72 52.578125 -72 C 47.453125 -72 42.894531 -70.738281 38.90625 -68.21875 C 34.914062 -65.695312 31.785156 -62.3125 29.515625 -58.0625 C 27.253906 -53.820312 26.125 -49.101562 26.125 -43.90625 C 26.125 -38.78125 27.253906 -34.078125 29.515625 -29.796875 C 31.785156 -25.515625 34.914062 -22.113281 38.90625 -19.59375 C 42.894531 -17.070312 47.453125 -15.8125 52.578125 -15.8125 C 56.597656 -15.8125 60.273438 -16.578125 63.609375 -18.109375 C 66.941406 -19.648438 69.738281 -21.773438 72 -24.484375 Z M 72 -24.484375 "/></g></g></g><g fill="#ffffff" fill-opacity="1"><g transform="translate(169.584422, 111.007389)"><g><path d="M 58.609375 -71.5625 L 24.140625 -71.5625 L 24.140625 -52.25 L 44.671875 -52.25 L 44.671875 -35.890625 L 24.140625 -35.890625 L 24.140625 -16.359375 L 58.609375 -16.359375 L 58.609375 0 L 7.6875 0 L 7.6875 -87.921875 L 58.609375 -87.921875 Z M 58.609375 -71.5625 "/></g></g></g><g fill="#ffffff" fill-opacity="1"><g transform="translate(232.475273, 111.007389)"><g><path d="M 48.734375 -88.90625 C 54.953125 -88.90625 60.769531 -87.734375 66.1875 -85.390625 C 71.601562 -83.054688 76.359375 -79.835938 80.453125 -75.734375 C 84.554688 -71.640625 87.773438 -66.882812 90.109375 -61.46875 C 92.453125 -56.050781 93.625 -50.234375 93.625 -44.015625 C 93.625 -37.796875 92.453125 -31.976562 90.109375 -26.5625 C 87.773438 -21.144531 84.554688 -16.382812 80.453125 -12.28125 C 76.359375 -8.1875 71.601562 -4.96875 66.1875 -2.625 C 60.769531 -0.289062 54.953125 0.875 48.734375 0.875 C 42.515625 0.875 36.695312 -0.289062 31.28125 -2.625 C 25.863281 -4.96875 21.101562 -8.1875 17 -12.28125 C 12.90625 -16.382812 9.6875 -21.144531 7.34375 -26.5625 C 5.007812 -31.976562 3.84375 -37.796875 3.84375 -44.015625 C 3.84375 -50.234375 5.007812 -56.050781 7.34375 -61.46875 C 9.6875 -66.882812 12.90625 -71.640625 17 -75.734375 C 21.101562 -79.835938 25.863281 -83.054688 31.28125 -85.390625 C 36.695312 -87.734375 42.515625 -88.90625 48.734375 -88.90625 Z M 48.734375 -72.109375 C 43.609375 -72.109375 39.050781 -70.847656 35.0625 -68.328125 C 31.082031 -65.804688 27.957031 -62.421875 25.6875 -58.171875 C 23.414062 -53.929688 22.28125 -49.210938 22.28125 -44.015625 C 22.28125 -38.890625 23.414062 -34.1875 25.6875 -29.90625 C 27.957031 -25.625 31.082031 -22.222656 35.0625 -19.703125 C 39.050781 -17.179688 43.609375 -15.921875 48.734375 -15.921875 C 53.929688 -15.921875 58.523438 -17.179688 62.515625 -19.703125 C 66.503906 -22.222656 69.628906 -25.625 71.890625 -29.90625 C 74.160156 -34.1875 75.296875 -38.890625 75.296875 -44.015625 C 75.296875 -49.210938 74.160156 -53.929688 71.890625 -58.171875 C 69.628906 -62.421875 66.503906 -65.804688 62.515625 -68.328125 C 58.523438 -70.847656 53.929688 -72.109375 48.734375 -72.109375 Z M 48.734375 -72.109375 "/></g></g></g></g></g></g></g></g></g><g clip-path="url(#caba79984f)"><g transform="matrix(1, 0, 0, 1, 0, 35)"><g clip-path="url(#734d9ed48f)"><g fill="#8c7251" fill-opacity="1"><g transform="translate(81.674775, 5.661143)"><g><path d="M 9.9375 6.671875 L 10.5625 7.046875 C 10.707031 7.140625 10.734375 7.257812 10.640625 7.40625 L 6.109375 14.875 C 6.023438 15.019531 5.910156 15.046875 5.765625 14.953125 L 5.140625 14.578125 C 4.984375 14.484375 4.945312 14.363281 5.03125 14.21875 L 6.9375 11.078125 L -2.828125 5.140625 C -2.984375 5.046875 -3.015625 4.925781 -2.921875 4.78125 L -2.46875 4.015625 C -2.375 3.867188 -2.25 3.84375 -2.09375 3.9375 L 7.671875 9.875 L 9.5625 6.75 C 9.65625 6.601562 9.78125 6.578125 9.9375 6.671875 Z M 9.9375 6.671875 "/></g></g></g><g fill="#8c7251" fill-opacity="1"><g transform="translate(76.205988, 14.685426)"><g><path d="M 3.75 11.6875 C 3.6875 11.800781 3.59375 11.828125 3.46875 11.765625 L -3.84375 8.0625 C -3.976562 8 -4.015625 7.910156 -3.953125 7.796875 L -3.734375 7.328125 C -3.679688 7.222656 -3.597656 7.179688 -3.484375 7.203125 L -2.015625 7.671875 C -2.253906 7.359375 -2.425781 6.992188 -2.53125 6.578125 C -2.632812 6.171875 -2.664062 5.742188 -2.625 5.296875 C -2.59375 4.847656 -2.472656 4.421875 -2.265625 4.015625 C -1.972656 3.429688 -1.578125 2.976562 -1.078125 2.65625 C -0.585938 2.34375 -0.0429688 2.171875 0.546875 2.140625 C 1.148438 2.117188 1.769531 2.269531 2.40625 2.59375 L 6.921875 4.875 C 7.046875 4.9375 7.078125 5.03125 7.015625 5.15625 L 6.625 5.9375 C 6.5625 6.070312 6.46875 6.109375 6.34375 6.046875 L 1.890625 3.796875 C 1.460938 3.585938 1.039062 3.488281 0.625 3.5 C 0.21875 3.519531 -0.160156 3.644531 -0.515625 3.875 C -0.867188 4.113281 -1.15625 4.445312 -1.375 4.875 C -1.53125 5.195312 -1.625 5.535156 -1.65625 5.890625 C -1.6875 6.242188 -1.65625 6.582031 -1.5625 6.90625 C -1.46875 7.226562 -1.316406 7.515625 -1.109375 7.765625 C -0.910156 8.015625 -0.664062 8.21875 -0.375 8.375 L 4.046875 10.609375 C 4.171875 10.671875 4.203125 10.765625 4.140625 10.890625 Z M 3.75 11.6875 "/></g></g></g><g fill="#8c7251" fill-opacity="1"><g transform="translate(71.465763, 24.030349)"><g><path d="M 5.859375 8.90625 C 5.628906 9.457031 5.3125 9.929688 4.90625 10.328125 C 4.507812 10.722656 4.046875 11.019531 3.515625 11.21875 C 2.992188 11.425781 2.441406 11.523438 1.859375 11.515625 C 1.273438 11.503906 0.679688 11.375 0.078125 11.125 C -0.503906 10.882812 -1.003906 10.5625 -1.421875 10.15625 C -1.847656 9.757812 -2.171875 9.304688 -2.390625 8.796875 C -2.609375 8.296875 -2.726562 7.757812 -2.75 7.1875 C -2.769531 6.613281 -2.664062 6.050781 -2.4375 5.5 C -2.15625 4.8125 -1.726562 4.25 -1.15625 3.8125 C -0.59375 3.375 0.0351562 3.109375 0.734375 3.015625 L -0.734375 2.140625 C -0.816406 2.078125 -0.835938 1.992188 -0.796875 1.890625 L -0.59375 1.421875 C -0.539062 1.296875 -0.445312 1.257812 -0.3125 1.3125 L 11.671875 6.21875 C 11.796875 6.269531 11.832031 6.359375 11.78125 6.484375 L 11.4375 7.296875 C 11.394531 7.421875 11.3125 7.457031 11.1875 7.40625 L 5.4375 5.046875 C 5.820312 5.597656 6.054688 6.207031 6.140625 6.875 C 6.222656 7.550781 6.128906 8.226562 5.859375 8.90625 Z M -1.1875 5.78125 C -1.351562 6.1875 -1.429688 6.597656 -1.421875 7.015625 C -1.410156 7.429688 -1.320312 7.828125 -1.15625 8.203125 C -1 8.585938 -0.769531 8.925781 -0.46875 9.21875 C -0.175781 9.507812 0.171875 9.738281 0.578125 9.90625 C 1.003906 10.082031 1.429688 10.171875 1.859375 10.171875 C 2.285156 10.171875 2.679688 10.09375 3.046875 9.9375 C 3.421875 9.789062 3.753906 9.566406 4.046875 9.265625 C 4.347656 8.960938 4.582031 8.609375 4.75 8.203125 C 4.925781 7.796875 5.007812 7.382812 5 6.96875 C 5 6.550781 4.921875 6.144531 4.765625 5.75 C 4.609375 5.363281 4.378906 5.019531 4.078125 4.71875 C 3.773438 4.425781 3.410156 4.191406 2.984375 4.015625 C 2.578125 3.847656 2.164062 3.765625 1.75 3.765625 C 1.332031 3.765625 0.929688 3.847656 0.546875 4.015625 C 0.160156 4.179688 -0.175781 4.414062 -0.46875 4.71875 C -0.769531 5.019531 -1.007812 5.375 -1.1875 5.78125 Z M -1.1875 5.78125 "/></g></g></g><g fill="#8c7251" fill-opacity="1"><g transform="translate(67.241137, 34.401402)"><g><path d="M 3.875 1.984375 C 4.46875 2.179688 4.988281 2.472656 5.4375 2.859375 C 5.882812 3.253906 6.238281 3.707031 6.5 4.21875 C 6.769531 4.726562 6.929688 5.28125 6.984375 5.875 C 7.035156 6.46875 6.960938 7.066406 6.765625 7.671875 C 6.566406 8.273438 6.28125 8.796875 5.90625 9.234375 C 5.53125 9.679688 5.082031 10.039062 4.5625 10.3125 C 4.050781 10.59375 3.5 10.757812 2.90625 10.8125 C 2.320312 10.863281 1.734375 10.789062 1.140625 10.59375 C 0.546875 10.40625 0.0234375 10.117188 -0.421875 9.734375 C -0.867188 9.359375 -1.222656 8.910156 -1.484375 8.390625 C -1.753906 7.867188 -1.914062 7.316406 -1.96875 6.734375 C -2.019531 6.148438 -1.945312 5.554688 -1.75 4.953125 C -1.550781 4.347656 -1.265625 3.816406 -0.890625 3.359375 C -0.515625 2.910156 -0.0703125 2.550781 0.4375 2.28125 C 0.957031 2.019531 1.507812 1.859375 2.09375 1.796875 C 2.6875 1.734375 3.28125 1.796875 3.875 1.984375 Z M 3.484375 3.234375 C 3.046875 3.097656 2.613281 3.046875 2.1875 3.078125 C 1.769531 3.109375 1.375 3.21875 1 3.40625 C 0.632812 3.601562 0.3125 3.863281 0.03125 4.1875 C -0.238281 4.507812 -0.441406 4.882812 -0.578125 5.3125 C -0.710938 5.75 -0.757812 6.175781 -0.71875 6.59375 C -0.6875 7.007812 -0.570312 7.398438 -0.375 7.765625 C -0.1875 8.128906 0.0664062 8.445312 0.390625 8.71875 C 0.710938 9 1.09375 9.207031 1.53125 9.34375 C 1.96875 9.488281 2.394531 9.539062 2.8125 9.5 C 3.226562 9.46875 3.625 9.359375 4 9.171875 C 4.375 8.984375 4.695312 8.726562 4.96875 8.40625 C 5.238281 8.082031 5.441406 7.703125 5.578125 7.265625 C 5.710938 6.835938 5.765625 6.414062 5.734375 6 C 5.703125 5.582031 5.585938 5.1875 5.390625 4.8125 C 5.191406 4.445312 4.929688 4.128906 4.609375 3.859375 C 4.296875 3.585938 3.921875 3.378906 3.484375 3.234375 Z M 3.484375 3.234375 "/></g></g></g><g fill="#8c7251" fill-opacity="1"><g transform="translate(64.059253, 44.560967)"><g><path d="M 6.359375 5.46875 C 6.453125 5.070312 6.425781 4.722656 6.28125 4.421875 C 6.144531 4.117188 5.910156 3.929688 5.578125 3.859375 C 5.398438 3.804688 5.222656 3.8125 5.046875 3.875 C 4.878906 3.945312 4.695312 4.09375 4.5 4.3125 C 4.3125 4.539062 4.101562 4.851562 3.875 5.25 C 3.539062 5.8125 3.207031 6.265625 2.875 6.609375 C 2.539062 6.953125 2.1875 7.179688 1.8125 7.296875 C 1.4375 7.421875 1.015625 7.429688 0.546875 7.328125 C 0.046875 7.203125 -0.347656 6.960938 -0.640625 6.609375 C -0.929688 6.265625 -1.113281 5.84375 -1.1875 5.34375 C -1.269531 4.84375 -1.238281 4.300781 -1.09375 3.71875 C -1 3.351562 -0.847656 2.992188 -0.640625 2.640625 C -0.441406 2.296875 -0.199219 1.988281 0.078125 1.71875 C 0.367188 1.457031 0.6875 1.25 1.03125 1.09375 C 1.175781 1.019531 1.296875 1.054688 1.390625 1.203125 L 1.796875 1.84375 C 1.835938 1.914062 1.84375 1.984375 1.8125 2.046875 C 1.789062 2.117188 1.738281 2.179688 1.65625 2.234375 C 1.4375 2.316406 1.21875 2.453125 1 2.640625 C 0.789062 2.835938 0.609375 3.054688 0.453125 3.296875 C 0.304688 3.546875 0.203125 3.789062 0.140625 4.03125 C 0.0546875 4.363281 0.03125 4.671875 0.0625 4.953125 C 0.09375 5.234375 0.175781 5.472656 0.3125 5.671875 C 0.457031 5.878906 0.65625 6.007812 0.90625 6.0625 C 1.238281 6.144531 1.554688 6.0625 1.859375 5.8125 C 2.160156 5.570312 2.472656 5.175781 2.796875 4.625 C 3.097656 4.101562 3.40625 3.671875 3.71875 3.328125 C 4.039062 2.984375 4.378906 2.742188 4.734375 2.609375 C 5.097656 2.484375 5.515625 2.476562 5.984375 2.59375 C 6.390625 2.695312 6.738281 2.894531 7.03125 3.1875 C 7.320312 3.488281 7.523438 3.863281 7.640625 4.3125 C 7.765625 4.757812 7.757812 5.25 7.625 5.78125 C 7.5 6.289062 7.273438 6.742188 6.953125 7.140625 C 6.628906 7.546875 6.238281 7.859375 5.78125 8.078125 C 5.625 8.160156 5.503906 8.117188 5.421875 7.953125 L 5.09375 7.375 C 5.070312 7.3125 5.070312 7.242188 5.09375 7.171875 C 5.113281 7.097656 5.15625 7.046875 5.21875 7.015625 C 5.5 6.847656 5.738281 6.632812 5.9375 6.375 C 6.132812 6.125 6.273438 5.820312 6.359375 5.46875 Z M 6.359375 5.46875 "/></g></g></g><g fill="#8c7251" fill-opacity="1"><g transform="translate(62.222527, 52.191115)"><g/></g></g><g fill="#8c7251" fill-opacity="1"><g transform="translate(61.135045, 57.331032)"><g><path d="M 12 11.140625 C 11.988281 11.273438 11.914062 11.332031 11.78125 11.3125 L -1.0625 9.609375 C -1.207031 9.585938 -1.273438 9.507812 -1.265625 9.375 L -1.1875 8.859375 C -1.175781 8.742188 -1.117188 8.679688 -1.015625 8.671875 L 0.71875 8.640625 C 0.144531 8.210938 -0.273438 7.671875 -0.546875 7.015625 C -0.828125 6.367188 -0.921875 5.664062 -0.828125 4.90625 C -0.742188 4.320312 -0.550781 3.785156 -0.25 3.296875 C 0.0390625 2.804688 0.410156 2.394531 0.859375 2.0625 C 1.304688 1.726562 1.8125 1.492188 2.375 1.359375 C 2.9375 1.222656 3.535156 1.195312 4.171875 1.28125 C 4.804688 1.363281 5.378906 1.546875 5.890625 1.828125 C 6.410156 2.109375 6.84375 2.46875 7.1875 2.90625 C 7.539062 3.34375 7.796875 3.832031 7.953125 4.375 C 8.109375 4.914062 8.144531 5.476562 8.0625 6.0625 C 7.96875 6.789062 7.71875 7.425781 7.3125 7.96875 C 6.90625 8.519531 6.382812 8.929688 5.75 9.203125 L 11.953125 10.015625 C 12.085938 10.035156 12.144531 10.113281 12.125 10.25 Z M 0.390625 5.28125 C 0.335938 5.726562 0.367188 6.15625 0.484375 6.5625 C 0.597656 6.96875 0.78125 7.335938 1.03125 7.671875 C 1.28125 8.015625 1.582031 8.289062 1.9375 8.5 C 2.300781 8.707031 2.707031 8.835938 3.15625 8.890625 C 3.601562 8.953125 4.03125 8.925781 4.4375 8.8125 C 4.851562 8.707031 5.222656 8.523438 5.546875 8.265625 C 5.878906 8.003906 6.148438 7.691406 6.359375 7.328125 C 6.578125 6.972656 6.710938 6.570312 6.765625 6.125 C 6.828125 5.6875 6.800781 5.269531 6.6875 4.875 C 6.570312 4.476562 6.390625 4.117188 6.140625 3.796875 C 5.898438 3.472656 5.59375 3.203125 5.21875 2.984375 C 4.851562 2.765625 4.445312 2.625 4 2.5625 C 3.550781 2.507812 3.125 2.539062 2.71875 2.65625 C 2.320312 2.769531 1.957031 2.945312 1.625 3.1875 C 1.289062 3.4375 1.015625 3.738281 0.796875 4.09375 C 0.585938 4.445312 0.453125 4.84375 0.390625 5.28125 Z M 0.390625 5.28125 "/></g></g></g><g fill="#8c7251" fill-opacity="1"><g transform="translate(59.691491, 68.431079)"><g><path d="M 8.5 5.546875 C 8.46875 6.140625 8.332031 6.6875 8.09375 7.1875 C 7.851562 7.695312 7.53125 8.128906 7.125 8.484375 C 6.726562 8.847656 6.269531 9.117188 5.75 9.296875 C 5.238281 9.484375 4.679688 9.5625 4.078125 9.53125 C 3.941406 9.519531 3.8125 9.484375 3.6875 9.421875 C 3.570312 9.359375 3.472656 9.273438 3.390625 9.171875 C 3.304688 9.066406 3.269531 8.953125 3.28125 8.828125 L 3.625 2.28125 C 3.25 2.300781 2.894531 2.390625 2.5625 2.546875 C 2.226562 2.710938 1.929688 2.929688 1.671875 3.203125 C 1.410156 3.472656 1.203125 3.789062 1.046875 4.15625 C 0.890625 4.519531 0.800781 4.910156 0.78125 5.328125 C 0.757812 5.710938 0.8125 6.113281 0.9375 6.53125 C 1.0625 6.945312 1.253906 7.320312 1.515625 7.65625 C 1.554688 7.707031 1.566406 7.757812 1.546875 7.8125 C 1.535156 7.875 1.507812 7.921875 1.46875 7.953125 L 0.828125 8.390625 C 0.773438 8.429688 0.71875 8.445312 0.65625 8.4375 C 0.59375 8.425781 0.546875 8.394531 0.515625 8.34375 C 0.285156 8.070312 0.0976562 7.757812 -0.046875 7.40625 C -0.203125 7.050781 -0.316406 6.679688 -0.390625 6.296875 C -0.460938 5.921875 -0.488281 5.554688 -0.46875 5.203125 C -0.4375 4.566406 -0.289062 3.984375 -0.03125 3.453125 C 0.226562 2.929688 0.570312 2.472656 1 2.078125 C 1.4375 1.691406 1.929688 1.394531 2.484375 1.1875 C 3.046875 0.988281 3.632812 0.910156 4.25 0.953125 C 4.882812 0.984375 5.460938 1.117188 5.984375 1.359375 C 6.503906 1.609375 6.957031 1.945312 7.34375 2.375 C 7.738281 2.800781 8.035156 3.28125 8.234375 3.8125 C 8.441406 4.351562 8.53125 4.929688 8.5 5.546875 Z M 7.265625 5.453125 C 7.285156 4.953125 7.195312 4.484375 7 4.046875 C 6.800781 3.609375 6.507812 3.238281 6.125 2.9375 C 5.738281 2.644531 5.304688 2.445312 4.828125 2.34375 L 4.515625 8.28125 C 5.015625 8.238281 5.46875 8.09375 5.875 7.84375 C 6.289062 7.601562 6.617188 7.273438 6.859375 6.859375 C 7.097656 6.453125 7.234375 5.984375 7.265625 5.453125 Z M 7.265625 5.453125 "/></g></g></g><g fill="#8c7251" fill-opacity="1"><g transform="translate(59.221332, 78.583628)"><g/></g></g><g fill="#8c7251" fill-opacity="1"><g transform="translate(59.188126, 83.814674)"><g><path d="M 0.125 5.203125 C 0.0820312 4.585938 0.164062 4 0.375 3.4375 C 0.582031 2.882812 0.878906 2.390625 1.265625 1.953125 C 1.648438 1.523438 2.109375 1.179688 2.640625 0.921875 C 3.171875 0.660156 3.738281 0.515625 4.34375 0.484375 C 4.957031 0.441406 5.539062 0.519531 6.09375 0.71875 C 6.644531 0.914062 7.132812 1.207031 7.5625 1.59375 C 8 1.988281 8.34375 2.445312 8.59375 2.96875 C 8.851562 3.488281 9.003906 4.054688 9.046875 4.671875 C 9.066406 5.046875 9.035156 5.425781 8.953125 5.8125 C 8.878906 6.195312 8.757812 6.554688 8.59375 6.890625 C 8.4375 7.222656 8.257812 7.523438 8.0625 7.796875 C 8.019531 7.847656 7.96875 7.875 7.90625 7.875 C 7.851562 7.875 7.804688 7.863281 7.765625 7.84375 L 7.046875 7.4375 C 7.003906 7.394531 6.972656 7.34375 6.953125 7.28125 C 6.941406 7.226562 6.957031 7.175781 7 7.125 C 7.25 6.800781 7.441406 6.4375 7.578125 6.03125 C 7.722656 5.632812 7.785156 5.210938 7.765625 4.765625 C 7.734375 4.335938 7.625 3.9375 7.4375 3.5625 C 7.257812 3.195312 7.019531 2.878906 6.71875 2.609375 C 6.414062 2.335938 6.066406 2.128906 5.671875 1.984375 C 5.273438 1.835938 4.851562 1.78125 4.40625 1.8125 C 3.96875 1.832031 3.5625 1.9375 3.1875 2.125 C 2.8125 2.3125 2.484375 2.554688 2.203125 2.859375 C 1.929688 3.160156 1.71875 3.503906 1.5625 3.890625 C 1.414062 4.285156 1.359375 4.703125 1.390625 5.140625 C 1.410156 5.585938 1.507812 6.003906 1.6875 6.390625 C 1.875 6.773438 2.113281 7.109375 2.40625 7.390625 C 2.4375 7.429688 2.453125 7.476562 2.453125 7.53125 C 2.460938 7.59375 2.441406 7.644531 2.390625 7.6875 L 1.765625 8.171875 C 1.722656 8.210938 1.671875 8.226562 1.609375 8.21875 C 1.546875 8.21875 1.492188 8.191406 1.453125 8.140625 C 1.191406 7.898438 0.96875 7.613281 0.78125 7.28125 C 0.59375 6.957031 0.441406 6.617188 0.328125 6.265625 C 0.210938 5.910156 0.144531 5.554688 0.125 5.203125 Z M 0.125 5.203125 "/></g></g></g><g fill="#8c7251" fill-opacity="1"><g transform="translate(59.684254, 93.044224)"><g><path d="M 9.765625 8.234375 C 9.785156 8.367188 9.722656 8.445312 9.578125 8.46875 L 1.46875 9.53125 C 1.320312 9.550781 1.238281 9.492188 1.21875 9.359375 L 1.15625 8.84375 C 1.132812 8.738281 1.175781 8.660156 1.28125 8.609375 L 2.90625 8.140625 C 2.257812 7.867188 1.71875 7.453125 1.28125 6.890625 C 0.84375 6.335938 0.578125 5.6875 0.484375 4.9375 C 0.398438 4.351562 0.4375 3.789062 0.59375 3.25 C 0.757812 2.707031 1.015625 2.21875 1.359375 1.78125 C 1.703125 1.34375 2.128906 0.984375 2.640625 0.703125 C 3.148438 0.421875 3.722656 0.238281 4.359375 0.15625 C 4.992188 0.0703125 5.59375 0.0976562 6.15625 0.234375 C 6.726562 0.367188 7.242188 0.601562 7.703125 0.9375 C 8.160156 1.269531 8.53125 1.675781 8.8125 2.15625 C 9.101562 2.632812 9.285156 3.164062 9.359375 3.75 C 9.460938 4.507812 9.378906 5.210938 9.109375 5.859375 C 8.835938 6.515625 8.414062 7.054688 7.84375 7.484375 L 9.515625 7.515625 C 9.617188 7.535156 9.679688 7.601562 9.703125 7.71875 Z M 1.75 5 C 1.8125 5.445312 1.953125 5.851562 2.171875 6.21875 C 2.390625 6.582031 2.660156 6.890625 2.984375 7.140625 C 3.316406 7.398438 3.679688 7.582031 4.078125 7.6875 C 4.484375 7.800781 4.910156 7.828125 5.359375 7.765625 C 5.804688 7.703125 6.210938 7.5625 6.578125 7.34375 C 6.953125 7.132812 7.265625 6.863281 7.515625 6.53125 C 7.765625 6.195312 7.941406 5.828125 8.046875 5.421875 C 8.160156 5.023438 8.1875 4.601562 8.125 4.15625 C 8.070312 3.726562 7.9375 3.332031 7.71875 2.96875 C 7.507812 2.613281 7.242188 2.3125 6.921875 2.0625 C 6.597656 1.8125 6.226562 1.628906 5.8125 1.515625 C 5.40625 1.398438 4.976562 1.375 4.53125 1.4375 C 4.082031 1.5 3.675781 1.632812 3.3125 1.84375 C 2.957031 2.0625 2.648438 2.332031 2.390625 2.65625 C 2.140625 2.988281 1.957031 3.351562 1.84375 3.75 C 1.726562 4.15625 1.695312 4.570312 1.75 5 Z M 1.75 5 "/></g></g></g><g fill="#8c7251" fill-opacity="1"><g transform="translate(61.204795, 104.093439)"><g><path d="M 9.359375 5.359375 C 9.328125 5.410156 9.28125 5.453125 9.21875 5.484375 C 9.164062 5.515625 9.113281 5.515625 9.0625 5.484375 L 8.375 5.21875 C 8.226562 5.15625 8.1875 5.050781 8.25 4.90625 C 8.375 4.664062 8.457031 4.410156 8.5 4.140625 C 8.539062 3.878906 8.535156 3.632812 8.484375 3.40625 C 8.421875 3.070312 8.296875 2.773438 8.109375 2.515625 C 7.921875 2.253906 7.6875 2.039062 7.40625 1.875 C 7.132812 1.707031 6.835938 1.59375 6.515625 1.53125 C 6.191406 1.46875 5.859375 1.472656 5.515625 1.546875 L 0.703125 2.53125 C 0.566406 2.550781 0.488281 2.492188 0.46875 2.359375 L 0.296875 1.5 C 0.265625 1.363281 0.316406 1.285156 0.453125 1.265625 L 8.484375 -0.375 C 8.628906 -0.40625 8.71875 -0.351562 8.75 -0.21875 L 8.84375 0.28125 C 8.863281 0.394531 8.828125 0.476562 8.734375 0.53125 L 7.40625 1.015625 C 7.769531 1.109375 8.101562 1.265625 8.40625 1.484375 C 8.71875 1.710938 8.984375 1.984375 9.203125 2.296875 C 9.421875 2.617188 9.566406 2.96875 9.640625 3.34375 C 9.703125 3.644531 9.703125 3.972656 9.640625 4.328125 C 9.585938 4.691406 9.492188 5.035156 9.359375 5.359375 Z M 9.359375 5.359375 "/></g></g></g><g fill="#8c7251" fill-opacity="1"><g transform="translate(62.781385, 111.713645)"><g><path d="M 2.25 4.515625 C 2.269531 4.597656 2.257812 4.671875 2.21875 4.734375 C 2.1875 4.796875 2.140625 4.832031 2.078125 4.84375 L 1.359375 5.03125 C 1.285156 5.050781 1.222656 5.039062 1.171875 5 C 1.117188 4.957031 1.082031 4.894531 1.0625 4.8125 C 0.90625 4.207031 0.882812 3.644531 1 3.125 C 1.113281 2.601562 1.359375 2.148438 1.734375 1.765625 C 2.109375 1.390625 2.597656 1.125 3.203125 0.96875 L 7.71875 -0.1875 L 7.421875 -1.3125 C 7.390625 -1.445312 7.429688 -1.53125 7.546875 -1.5625 L 8.21875 -1.734375 C 8.351562 -1.765625 8.4375 -1.710938 8.46875 -1.578125 L 8.765625 -0.453125 L 11.234375 -1.09375 C 11.359375 -1.125 11.453125 -1.085938 11.515625 -0.984375 L 11.921875 -0.171875 C 11.992188 -0.0234375 11.960938 0.0625 11.828125 0.09375 L 9.09375 0.8125 L 9.546875 2.59375 C 9.578125 2.726562 9.53125 2.8125 9.40625 2.84375 L 8.71875 3.015625 C 8.601562 3.046875 8.53125 2.992188 8.5 2.859375 L 8.046875 1.078125 L 3.515625 2.25 C 3.160156 2.332031 2.867188 2.484375 2.640625 2.703125 C 2.421875 2.929688 2.273438 3.203125 2.203125 3.515625 C 2.140625 3.828125 2.15625 4.160156 2.25 4.515625 Z M 2.25 4.515625 "/></g></g></g><g fill="#8c7251" fill-opacity="1"><g transform="translate(64.290437, 117.807693)"><g><path d="M 11.46875 2.25 C 11.375 2.21875 11.300781 2.1875 11.25 2.15625 C 11.207031 2.125 11.175781 2.070312 11.15625 2 L 11.046875 1.640625 C 11.015625 1.554688 11.019531 1.488281 11.0625 1.4375 C 11.113281 1.382812 11.195312 1.375 11.3125 1.40625 L 14.234375 2.109375 C 14.398438 2.128906 14.503906 2.207031 14.546875 2.34375 L 14.734375 2.875 C 14.765625 2.976562 14.75 3.0625 14.6875 3.125 C 14.625 3.1875 14.539062 3.195312 14.4375 3.15625 Z M 4.296875 -0.640625 C 4.898438 -0.835938 5.492188 -0.90625 6.078125 -0.84375 C 6.671875 -0.789062 7.226562 -0.628906 7.75 -0.359375 C 8.269531 -0.0976562 8.71875 0.25 9.09375 0.6875 C 9.476562 1.132812 9.769531 1.660156 9.96875 2.265625 C 10.164062 2.867188 10.238281 3.460938 10.1875 4.046875 C 10.144531 4.640625 9.992188 5.195312 9.734375 5.71875 C 9.472656 6.238281 9.117188 6.6875 8.671875 7.0625 C 8.222656 7.445312 7.695312 7.738281 7.09375 7.9375 C 6.5 8.125 5.910156 8.195312 5.328125 8.15625 C 4.753906 8.113281 4.207031 7.957031 3.6875 7.6875 C 3.164062 7.414062 2.710938 7.054688 2.328125 6.609375 C 1.953125 6.160156 1.664062 5.632812 1.46875 5.03125 C 1.269531 4.425781 1.191406 3.832031 1.234375 3.25 C 1.285156 2.664062 1.441406 2.113281 1.703125 1.59375 C 1.960938 1.082031 2.3125 0.628906 2.75 0.234375 C 3.1875 -0.160156 3.703125 -0.453125 4.296875 -0.640625 Z M 4.703125 0.609375 C 4.273438 0.742188 3.898438 0.945312 3.578125 1.21875 C 3.253906 1.5 3 1.820312 2.8125 2.1875 C 2.625 2.550781 2.507812 2.945312 2.46875 3.375 C 2.4375 3.800781 2.492188 4.226562 2.640625 4.65625 C 2.773438 5.082031 2.976562 5.453125 3.25 5.765625 C 3.53125 6.085938 3.851562 6.34375 4.21875 6.53125 C 4.59375 6.71875 4.988281 6.820312 5.40625 6.84375 C 5.832031 6.875 6.257812 6.820312 6.6875 6.6875 C 7.125 6.539062 7.503906 6.332031 7.828125 6.0625 C 8.160156 5.789062 8.421875 5.46875 8.609375 5.09375 C 8.796875 4.726562 8.90625 4.335938 8.9375 3.921875 C 8.96875 3.503906 8.914062 3.082031 8.78125 2.65625 C 8.632812 2.226562 8.425781 1.847656 8.15625 1.515625 C 7.882812 1.191406 7.5625 0.9375 7.1875 0.75 C 6.820312 0.570312 6.425781 0.46875 6 0.4375 C 5.570312 0.40625 5.140625 0.460938 4.703125 0.609375 Z M 4.703125 0.609375 "/></g></g></g><g fill="#8c7251" fill-opacity="1"><g transform="translate(67.605489, 127.953592)"><g><path d="M 10.28125 1.859375 C 10.539062 2.472656 10.628906 3.066406 10.546875 3.640625 C 10.472656 4.222656 10.25 4.75 9.875 5.21875 C 9.5 5.6875 8.984375 6.054688 8.328125 6.328125 L 3.640625 8.265625 C 3.503906 8.316406 3.410156 8.273438 3.359375 8.140625 L 3.015625 7.328125 C 2.960938 7.203125 3.003906 7.113281 3.140625 7.0625 L 7.765625 5.15625 C 8.191406 4.96875 8.53125 4.707031 8.78125 4.375 C 9.039062 4.050781 9.195312 3.679688 9.25 3.265625 C 9.300781 2.859375 9.238281 2.429688 9.0625 1.984375 C 8.914062 1.640625 8.71875 1.34375 8.46875 1.09375 C 8.21875 0.851562 7.941406 0.660156 7.640625 0.515625 C 7.335938 0.367188 7.023438 0.285156 6.703125 0.265625 C 6.378906 0.253906 6.054688 0.316406 5.734375 0.453125 L 1.171875 2.328125 C 1.046875 2.378906 0.957031 2.34375 0.90625 2.21875 L 0.5625 1.421875 C 0.519531 1.296875 0.5625 1.207031 0.6875 1.15625 L 8.265625 -1.96875 C 8.398438 -2.03125 8.488281 -2 8.53125 -1.875 L 8.734375 -1.40625 C 8.773438 -1.300781 8.753906 -1.210938 8.671875 -1.140625 L 7.34375 -0.34375 C 7.757812 -0.3125 8.15625 -0.195312 8.53125 0 C 8.914062 0.1875 9.257812 0.4375 9.5625 0.75 C 9.875 1.070312 10.113281 1.441406 10.28125 1.859375 Z M 10.28125 1.859375 "/></g></g></g><g fill="#8c7251" fill-opacity="1"><g transform="translate(71.659378, 137.543637)"><g/></g></g><g fill="#8c7251" fill-opacity="1"><g transform="translate(73.896488, 142.264534)"><g><path d="M 11.4375 2.984375 C 11.46875 3.046875 11.472656 3.097656 11.453125 3.140625 C 11.429688 3.191406 11.378906 3.21875 11.296875 3.21875 L 2.484375 4.140625 L 2.5 4.15625 L -1.09375 4.53125 C -1.21875 4.550781 -1.304688 4.519531 -1.359375 4.4375 L -1.734375 3.734375 C -1.773438 3.648438 -1.785156 3.578125 -1.765625 3.515625 C -1.742188 3.460938 -1.675781 3.425781 -1.5625 3.40625 L 1.875 3.015625 L 7.40625 -3.890625 C 7.457031 -3.941406 7.507812 -3.960938 7.5625 -3.953125 C 7.613281 -3.953125 7.65625 -3.925781 7.6875 -3.875 L 8.15625 -3.015625 C 8.1875 -2.960938 8.195312 -2.90625 8.1875 -2.84375 C 8.175781 -2.789062 8.15625 -2.742188 8.125 -2.703125 L 3.53125 2.84375 L 10.6875 1.96875 C 10.738281 1.96875 10.789062 1.984375 10.84375 2.015625 C 10.894531 2.046875 10.9375 2.082031 10.96875 2.125 Z M 11.4375 2.984375 "/></g></g></g><g fill="#8c7251" fill-opacity="1"><g transform="translate(78.023396, 149.71653)"><g/></g></g><g fill="#8c7251" fill-opacity="1"><g transform="translate(80.711045, 154.214896)"><g><path d="M 10.109375 -0.84375 C 10.453125 -0.351562 10.6875 0.160156 10.8125 0.703125 C 10.9375 1.253906 10.953125 1.796875 10.859375 2.328125 C 10.765625 2.859375 10.566406 3.351562 10.265625 3.8125 C 9.972656 4.269531 9.578125 4.675781 9.078125 5.03125 C 8.960938 5.101562 8.832031 5.148438 8.6875 5.171875 C 8.550781 5.191406 8.421875 5.1875 8.296875 5.15625 C 8.171875 5.132812 8.070312 5.070312 8 4.96875 L 4.25 -0.421875 C 3.96875 -0.179688 3.742188 0.101562 3.578125 0.4375 C 3.421875 0.769531 3.320312 1.125 3.28125 1.5 C 3.238281 1.875 3.269531 2.25 3.375 2.625 C 3.476562 3.007812 3.644531 3.375 3.875 3.71875 C 4.101562 4.039062 4.394531 4.328125 4.75 4.578125 C 5.101562 4.835938 5.484375 5.015625 5.890625 5.109375 C 5.953125 5.117188 5.992188 5.15625 6.015625 5.21875 C 6.046875 5.28125 6.054688 5.335938 6.046875 5.390625 L 5.8125 6.125 C 5.789062 6.1875 5.753906 6.234375 5.703125 6.265625 C 5.648438 6.296875 5.59375 6.300781 5.53125 6.28125 C 5.175781 6.195312 4.832031 6.0625 4.5 5.875 C 4.164062 5.695312 3.851562 5.476562 3.5625 5.21875 C 3.28125 4.96875 3.035156 4.691406 2.828125 4.390625 C 2.460938 3.867188 2.21875 3.320312 2.09375 2.75 C 1.96875 2.175781 1.957031 1.601562 2.0625 1.03125 C 2.164062 0.457031 2.375 -0.078125 2.6875 -0.578125 C 3.007812 -1.078125 3.421875 -1.5 3.921875 -1.84375 C 4.441406 -2.207031 4.984375 -2.457031 5.546875 -2.59375 C 6.117188 -2.726562 6.6875 -2.75 7.25 -2.65625 C 7.820312 -2.5625 8.351562 -2.363281 8.84375 -2.0625 C 9.332031 -1.757812 9.753906 -1.351562 10.109375 -0.84375 Z M 9.078125 -0.171875 C 8.796875 -0.578125 8.441406 -0.890625 8.015625 -1.109375 C 7.585938 -1.328125 7.128906 -1.4375 6.640625 -1.4375 C 6.160156 -1.4375 5.691406 -1.328125 5.234375 -1.109375 L 8.625 3.78125 C 9.019531 3.4375 9.300781 3.039062 9.46875 2.59375 C 9.644531 2.144531 9.703125 1.679688 9.640625 1.203125 C 9.578125 0.734375 9.390625 0.273438 9.078125 -0.171875 Z M 9.078125 -0.171875 "/></g></g></g><g fill="#8c7251" fill-opacity="1"><g transform="translate(86.487751, 162.714963)"><g><path d="M 13.75 2.6875 C 14.132812 3.144531 14.359375 3.640625 14.421875 4.171875 C 14.492188 4.703125 14.410156 5.234375 14.171875 5.765625 C 13.929688 6.296875 13.539062 6.796875 13 7.265625 L 9.15625 10.515625 C 9.101562 10.546875 9.046875 10.5625 8.984375 10.5625 C 8.929688 10.570312 8.890625 10.550781 8.859375 10.5 L 8.28125 9.828125 C 8.1875 9.722656 8.195312 9.625 8.3125 9.53125 L 12.109375 6.3125 C 12.460938 6.007812 12.722656 5.675781 12.890625 5.3125 C 13.054688 4.957031 13.117188 4.59375 13.078125 4.21875 C 13.035156 3.84375 12.878906 3.5 12.609375 3.1875 C 12.316406 2.832031 11.976562 2.59375 11.59375 2.46875 C 11.21875 2.34375 10.828125 2.320312 10.421875 2.40625 C 10.015625 2.5 9.625 2.707031 9.25 3.03125 L 9.25 3.015625 L 5.5 6.203125 C 5.445312 6.234375 5.394531 6.25 5.34375 6.25 C 5.289062 6.25 5.242188 6.226562 5.203125 6.1875 L 4.625 5.5 C 4.539062 5.394531 4.554688 5.296875 4.671875 5.203125 L 8.46875 1.984375 C 8.820312 1.679688 9.078125 1.347656 9.234375 0.984375 C 9.398438 0.617188 9.460938 0.253906 9.421875 -0.109375 C 9.378906 -0.472656 9.222656 -0.8125 8.953125 -1.125 C 8.648438 -1.488281 8.3125 -1.734375 7.9375 -1.859375 C 7.5625 -1.984375 7.171875 -2 6.765625 -1.90625 C 6.359375 -1.820312 5.96875 -1.617188 5.59375 -1.296875 L 1.828125 1.875 C 1.722656 1.96875 1.625 1.960938 1.53125 1.859375 L 0.96875 1.1875 C 0.882812 1.082031 0.894531 0.984375 1 0.890625 L 7.265625 -4.40625 C 7.378906 -4.5 7.476562 -4.492188 7.5625 -4.390625 L 7.90625 -4 C 7.976562 -3.914062 7.984375 -3.820312 7.921875 -3.71875 L 6.953125 -2.625 C 7.523438 -2.789062 8.085938 -2.785156 8.640625 -2.609375 C 9.203125 -2.429688 9.6875 -2.101562 10.09375 -1.625 C 10.519531 -1.125 10.75 -0.570312 10.78125 0.03125 C 10.820312 0.632812 10.671875 1.21875 10.328125 1.78125 C 10.742188 1.625 11.15625 1.550781 11.5625 1.5625 C 11.96875 1.582031 12.359375 1.6875 12.734375 1.875 C 13.117188 2.070312 13.457031 2.34375 13.75 2.6875 Z M 13.75 2.6875 "/></g></g></g><g fill="#8c7251" fill-opacity="1"><g transform="translate(96.539874, 174.424185)"><g><path d="M 10.453125 -2.09375 C 10.878906 -1.675781 11.203125 -1.207031 11.421875 -0.6875 C 11.640625 -0.164062 11.738281 0.367188 11.71875 0.921875 C 11.707031 1.484375 11.585938 2.035156 11.359375 2.578125 C 11.140625 3.117188 10.804688 3.617188 10.359375 4.078125 C 9.921875 4.523438 9.4375 4.867188 8.90625 5.109375 C 8.375 5.347656 7.828125 5.476562 7.265625 5.5 C 6.703125 5.53125 6.15625 5.445312 5.625 5.25 C 5.101562 5.050781 4.628906 4.742188 4.203125 4.328125 C 3.679688 3.816406 3.320312 3.234375 3.125 2.578125 C 2.9375 1.929688 2.914062 1.269531 3.0625 0.59375 L -0.3125 4.0625 C -0.40625 4.164062 -0.5 4.175781 -0.59375 4.09375 L -1.234375 3.46875 C -1.328125 3.375 -1.328125 3.273438 -1.234375 3.171875 L 6.8125 -5.109375 C 6.914062 -5.210938 7.015625 -5.21875 7.109375 -5.125 L 7.484375 -4.765625 C 7.566406 -4.679688 7.578125 -4.585938 7.515625 -4.484375 L 6.515625 -3.09375 C 7.203125 -3.289062 7.894531 -3.304688 8.59375 -3.140625 C 9.289062 -2.972656 9.910156 -2.625 10.453125 -2.09375 Z M 4.921875 3.25 C 5.234375 3.5625 5.582031 3.789062 5.96875 3.9375 C 6.351562 4.09375 6.753906 4.164062 7.171875 4.15625 C 7.585938 4.144531 7.988281 4.054688 8.375 3.890625 C 8.769531 3.734375 9.117188 3.492188 9.421875 3.171875 C 9.742188 2.847656 9.984375 2.488281 10.140625 2.09375 C 10.296875 1.695312 10.367188 1.296875 10.359375 0.890625 C 10.359375 0.484375 10.28125 0.0859375 10.125 -0.296875 C 9.96875 -0.679688 9.734375 -1.023438 9.421875 -1.328125 C 9.085938 -1.648438 8.722656 -1.882812 8.328125 -2.03125 C 7.929688 -2.1875 7.523438 -2.265625 7.109375 -2.265625 C 6.691406 -2.265625 6.285156 -2.179688 5.890625 -2.015625 C 5.503906 -1.847656 5.148438 -1.601562 4.828125 -1.28125 C 4.523438 -0.957031 4.296875 -0.597656 4.140625 -0.203125 C 3.984375 0.179688 3.910156 0.582031 3.921875 1 C 3.929688 1.425781 4.019531 1.828125 4.1875 2.203125 C 4.351562 2.585938 4.597656 2.9375 4.921875 3.25 Z M 4.921875 3.25 "/></g></g></g><g fill="#8c7251" fill-opacity="1"><g transform="translate(104.592398, 182.231734)"><g><path d="M 12.75 -0.65625 C 12.851562 -0.570312 12.859375 -0.472656 12.765625 -0.359375 L 7.5625 5.96875 C 7.46875 6.082031 7.367188 6.097656 7.265625 6.015625 L 6.875 5.6875 C 6.789062 5.613281 6.769531 5.523438 6.8125 5.421875 L 7.6875 3.96875 C 7.03125 4.207031 6.347656 4.269531 5.640625 4.15625 C 4.941406 4.050781 4.304688 3.757812 3.734375 3.28125 C 3.273438 2.90625 2.914062 2.460938 2.65625 1.953125 C 2.394531 1.453125 2.242188 0.921875 2.203125 0.359375 C 2.160156 -0.191406 2.226562 -0.742188 2.40625 -1.296875 C 2.59375 -1.847656 2.890625 -2.367188 3.296875 -2.859375 C 3.703125 -3.359375 4.160156 -3.75 4.671875 -4.03125 C 5.179688 -4.320312 5.710938 -4.503906 6.265625 -4.578125 C 6.816406 -4.648438 7.363281 -4.609375 7.90625 -4.453125 C 8.457031 -4.296875 8.960938 -4.03125 9.421875 -3.65625 C 10.003906 -3.164062 10.414062 -2.585938 10.65625 -1.921875 C 10.90625 -1.265625 10.96875 -0.582031 10.84375 0.125 L 12.09375 -1 C 12.175781 -1.0625 12.265625 -1.054688 12.359375 -0.984375 Z M 4.6875 2.453125 C 5.039062 2.734375 5.421875 2.929688 5.828125 3.046875 C 6.242188 3.171875 6.65625 3.210938 7.0625 3.171875 C 7.476562 3.140625 7.867188 3.023438 8.234375 2.828125 C 8.597656 2.640625 8.925781 2.375 9.21875 2.03125 C 9.507812 1.675781 9.710938 1.289062 9.828125 0.875 C 9.953125 0.46875 9.992188 0.0546875 9.953125 -0.359375 C 9.910156 -0.773438 9.789062 -1.164062 9.59375 -1.53125 C 9.40625 -1.894531 9.132812 -2.21875 8.78125 -2.5 C 8.445312 -2.78125 8.082031 -2.976562 7.6875 -3.09375 C 7.289062 -3.21875 6.882812 -3.257812 6.46875 -3.21875 C 6.050781 -3.175781 5.65625 -3.054688 5.28125 -2.859375 C 4.914062 -2.660156 4.585938 -2.382812 4.296875 -2.03125 C 4.003906 -1.6875 3.796875 -1.3125 3.671875 -0.90625 C 3.554688 -0.507812 3.519531 -0.105469 3.5625 0.296875 C 3.613281 0.710938 3.726562 1.101562 3.90625 1.46875 C 4.09375 1.84375 4.351562 2.171875 4.6875 2.453125 Z M 4.6875 2.453125 "/></g></g></g><g fill="#8c7251" fill-opacity="1"><g transform="translate(113.240616, 189.33391)"><g><path d="M 12.6875 -1.703125 C 12.8125 -1.617188 12.832031 -1.515625 12.75 -1.390625 L 6.1875 8.09375 C 6.101562 8.207031 5.992188 8.222656 5.859375 8.140625 L 5.140625 7.640625 C 5.035156 7.554688 5.023438 7.457031 5.109375 7.34375 L 7.859375 3.375 C 7.234375 3.644531 6.582031 3.75 5.90625 3.6875 C 5.226562 3.625 4.585938 3.382812 3.984375 2.96875 C 3.503906 2.632812 3.109375 2.226562 2.796875 1.75 C 2.492188 1.269531 2.300781 0.753906 2.21875 0.203125 C 2.144531 -0.347656 2.171875 -0.910156 2.296875 -1.484375 C 2.429688 -2.054688 2.675781 -2.597656 3.03125 -3.109375 C 3.394531 -3.640625 3.820312 -4.066406 4.3125 -4.390625 C 4.800781 -4.710938 5.316406 -4.929688 5.859375 -5.046875 C 6.410156 -5.171875 6.960938 -5.175781 7.515625 -5.0625 C 8.066406 -4.957031 8.585938 -4.734375 9.078125 -4.390625 C 9.703125 -3.953125 10.160156 -3.410156 10.453125 -2.765625 C 10.753906 -2.117188 10.875 -1.429688 10.8125 -0.703125 L 11.984375 -1.984375 C 12.085938 -2.046875 12.179688 -2.050781 12.265625 -2 Z M 4.890625 2.046875 C 5.253906 2.304688 5.644531 2.476562 6.0625 2.5625 C 6.476562 2.65625 6.890625 2.664062 7.296875 2.59375 C 7.703125 2.53125 8.082031 2.378906 8.4375 2.140625 C 8.789062 1.910156 9.09375 1.617188 9.34375 1.265625 C 9.601562 0.890625 9.773438 0.492188 9.859375 0.078125 C 9.953125 -0.335938 9.957031 -0.75 9.875 -1.15625 C 9.800781 -1.5625 9.648438 -1.941406 9.421875 -2.296875 C 9.203125 -2.648438 8.910156 -2.957031 8.546875 -3.21875 C 8.179688 -3.46875 7.796875 -3.628906 7.390625 -3.703125 C 6.984375 -3.785156 6.578125 -3.789062 6.171875 -3.71875 C 5.765625 -3.644531 5.378906 -3.492188 5.015625 -3.265625 C 4.660156 -3.046875 4.351562 -2.75 4.09375 -2.375 C 3.84375 -2.019531 3.671875 -1.628906 3.578125 -1.203125 C 3.492188 -0.785156 3.488281 -0.375 3.5625 0.03125 C 3.644531 0.4375 3.796875 0.8125 4.015625 1.15625 C 4.234375 1.5 4.523438 1.796875 4.890625 2.046875 Z M 4.890625 2.046875 "/></g></g></g><g fill="#8c7251" fill-opacity="1"><g transform="translate(122.464998, 195.699145)"><g><path d="M 11.875 -3.046875 C 12 -2.984375 12.023438 -2.894531 11.953125 -2.78125 L 7.84375 4.3125 C 7.757812 4.4375 7.65625 4.46875 7.53125 4.40625 L 7.09375 4.140625 C 6.988281 4.085938 6.957031 4.003906 7 3.890625 L 7.5625 2.453125 C 7.226562 2.671875 6.847656 2.820312 6.421875 2.90625 C 6.003906 2.988281 5.570312 2.992188 5.125 2.921875 C 4.6875 2.859375 4.269531 2.710938 3.875 2.484375 C 3.3125 2.160156 2.882812 1.738281 2.59375 1.21875 C 2.300781 0.707031 2.160156 0.152344 2.171875 -0.4375 C 2.191406 -1.03125 2.378906 -1.632812 2.734375 -2.25 L 5.28125 -6.625 C 5.34375 -6.75 5.4375 -6.78125 5.5625 -6.71875 L 6.3125 -6.28125 C 6.4375 -6.207031 6.46875 -6.109375 6.40625 -5.984375 L 3.890625 -1.671875 C 3.648438 -1.265625 3.53125 -0.851562 3.53125 -0.4375 C 3.53125 -0.0195312 3.632812 0.367188 3.84375 0.734375 C 4.0625 1.109375 4.378906 1.414062 4.796875 1.65625 C 5.109375 1.832031 5.4375 1.945312 5.78125 2 C 6.132812 2.050781 6.472656 2.039062 6.796875 1.96875 C 7.117188 1.894531 7.414062 1.765625 7.6875 1.578125 C 7.957031 1.390625 8.175781 1.148438 8.34375 0.859375 L 10.828125 -3.421875 C 10.898438 -3.535156 10.992188 -3.5625 11.109375 -3.5 Z M 11.875 -3.046875 "/></g></g></g><g fill="#8c7251" fill-opacity="1"><g transform="translate(131.518292, 200.947211)"><g><path d="M 8.40625 -5.703125 C 8.945312 -5.429688 9.398438 -5.085938 9.765625 -4.671875 C 10.140625 -4.265625 10.414062 -3.804688 10.59375 -3.296875 C 10.769531 -2.785156 10.84375 -2.257812 10.8125 -1.71875 C 10.78125 -1.175781 10.632812 -0.628906 10.375 -0.078125 C 10.3125 0.0429688 10.222656 0.148438 10.109375 0.234375 C 10.003906 0.328125 9.890625 0.390625 9.765625 0.421875 C 9.640625 0.460938 9.519531 0.457031 9.40625 0.40625 L 3.5 -2.453125 C 3.363281 -2.097656 3.304688 -1.738281 3.328125 -1.375 C 3.347656 -1.007812 3.429688 -0.65625 3.578125 -0.3125 C 3.734375 0.0273438 3.945312 0.34375 4.21875 0.625 C 4.5 0.914062 4.828125 1.15625 5.203125 1.34375 C 5.566406 1.507812 5.960938 1.617188 6.390625 1.671875 C 6.828125 1.722656 7.25 1.6875 7.65625 1.5625 C 7.707031 1.550781 7.753906 1.5625 7.796875 1.59375 C 7.847656 1.625 7.890625 1.664062 7.921875 1.71875 L 8.0625 2.484375 C 8.082031 2.546875 8.070312 2.601562 8.03125 2.65625 C 8 2.707031 7.957031 2.742188 7.90625 2.765625 C 7.5625 2.867188 7.195312 2.921875 6.8125 2.921875 C 6.425781 2.921875 6.046875 2.878906 5.671875 2.796875 C 5.296875 2.722656 4.945312 2.601562 4.625 2.4375 C 4.050781 2.164062 3.566406 1.804688 3.171875 1.359375 C 2.785156 0.921875 2.492188 0.425781 2.296875 -0.125 C 2.109375 -0.675781 2.03125 -1.242188 2.0625 -1.828125 C 2.09375 -2.421875 2.238281 -2.992188 2.5 -3.546875 C 2.78125 -4.117188 3.132812 -4.597656 3.5625 -4.984375 C 4 -5.378906 4.488281 -5.671875 5.03125 -5.859375 C 5.570312 -6.054688 6.128906 -6.144531 6.703125 -6.125 C 7.273438 -6.101562 7.84375 -5.960938 8.40625 -5.703125 Z M 7.828125 -4.59375 C 7.378906 -4.8125 6.914062 -4.910156 6.4375 -4.890625 C 5.96875 -4.878906 5.519531 -4.753906 5.09375 -4.515625 C 4.664062 -4.285156 4.3125 -3.957031 4.03125 -3.53125 L 9.390625 -0.9375 C 9.546875 -1.4375 9.585938 -1.921875 9.515625 -2.390625 C 9.453125 -2.859375 9.273438 -3.285156 8.984375 -3.671875 C 8.703125 -4.054688 8.316406 -4.363281 7.828125 -4.59375 Z M 7.828125 -4.59375 "/></g></g></g><g fill="#8c7251" fill-opacity="1"><g transform="translate(140.711133, 205.343505)"><g><path d="M 6.3125 -5.515625 C 5.9375 -5.671875 5.585938 -5.695312 5.265625 -5.59375 C 4.953125 -5.5 4.734375 -5.289062 4.609375 -4.96875 C 4.535156 -4.800781 4.519531 -4.625 4.5625 -4.4375 C 4.601562 -4.257812 4.722656 -4.0625 4.921875 -3.84375 C 5.117188 -3.632812 5.394531 -3.382812 5.75 -3.09375 C 6.25 -2.6875 6.644531 -2.289062 6.9375 -1.90625 C 7.238281 -1.519531 7.421875 -1.128906 7.484375 -0.734375 C 7.554688 -0.347656 7.5 0.0664062 7.3125 0.515625 C 7.125 0.984375 6.835938 1.335938 6.453125 1.578125 C 6.066406 1.816406 5.625 1.9375 5.125 1.9375 C 4.625 1.945312 4.09375 1.835938 3.53125 1.609375 C 3.1875 1.460938 2.851562 1.265625 2.53125 1.015625 C 2.207031 0.765625 1.9375 0.476562 1.71875 0.15625 C 1.5 -0.164062 1.335938 -0.503906 1.234375 -0.859375 C 1.179688 -1.015625 1.234375 -1.128906 1.390625 -1.203125 L 2.09375 -1.515625 C 2.15625 -1.535156 2.21875 -1.53125 2.28125 -1.5 C 2.351562 -1.46875 2.40625 -1.410156 2.4375 -1.328125 C 2.5 -1.078125 2.609375 -0.835938 2.765625 -0.609375 C 2.921875 -0.390625 3.109375 -0.1875 3.328125 0 C 3.546875 0.195312 3.769531 0.34375 4 0.4375 C 4.320312 0.5625 4.625 0.628906 4.90625 0.640625 C 5.195312 0.648438 5.445312 0.597656 5.65625 0.484375 C 5.875 0.378906 6.03125 0.210938 6.125 -0.015625 C 6.257812 -0.335938 6.226562 -0.664062 6.03125 -1 C 5.832031 -1.332031 5.476562 -1.695312 4.96875 -2.09375 C 4.5 -2.476562 4.117188 -2.847656 3.828125 -3.203125 C 3.535156 -3.566406 3.347656 -3.9375 3.265625 -4.3125 C 3.191406 -4.6875 3.242188 -5.101562 3.421875 -5.5625 C 3.578125 -5.945312 3.820312 -6.257812 4.15625 -6.5 C 4.5 -6.75 4.898438 -6.898438 5.359375 -6.953125 C 5.816406 -7.003906 6.300781 -6.925781 6.8125 -6.71875 C 7.300781 -6.519531 7.71875 -6.234375 8.0625 -5.859375 C 8.414062 -5.484375 8.671875 -5.054688 8.828125 -4.578125 C 8.878906 -4.410156 8.820312 -4.296875 8.65625 -4.234375 L 8.03125 -3.984375 C 7.96875 -3.960938 7.898438 -3.96875 7.828125 -4 C 7.765625 -4.039062 7.710938 -4.097656 7.671875 -4.171875 C 7.566406 -4.472656 7.398438 -4.738281 7.171875 -4.96875 C 6.941406 -5.195312 6.65625 -5.378906 6.3125 -5.515625 Z M 6.3125 -5.515625 "/></g></g></g><g fill="#8c7251" fill-opacity="1"><g transform="translate(152.932113, 210.058719)"><g><path d="M 12.734375 -10.28125 C 12.867188 -10.25 12.914062 -10.164062 12.875 -10.03125 L 9.359375 2.421875 C 9.316406 2.566406 9.226562 2.625 9.09375 2.59375 L 8.59375 2.453125 C 8.488281 2.421875 8.4375 2.347656 8.4375 2.234375 L 8.65625 0.53125 C 8.144531 1.019531 7.546875 1.359375 6.859375 1.546875 C 6.171875 1.734375 5.460938 1.726562 4.734375 1.53125 C 4.160156 1.363281 3.65625 1.097656 3.21875 0.734375 C 2.78125 0.367188 2.429688 -0.0546875 2.171875 -0.546875 C 1.910156 -1.035156 1.75 -1.566406 1.6875 -2.140625 C 1.625 -2.722656 1.679688 -3.320312 1.859375 -3.9375 C 2.035156 -4.550781 2.300781 -5.09375 2.65625 -5.5625 C 3.007812 -6.03125 3.425781 -6.40625 3.90625 -6.6875 C 4.394531 -6.976562 4.914062 -7.160156 5.46875 -7.234375 C 6.019531 -7.316406 6.582031 -7.28125 7.15625 -7.125 C 7.851562 -6.925781 8.441406 -6.582031 8.921875 -6.09375 C 9.410156 -5.613281 9.753906 -5.039062 9.953125 -4.375 L 11.625 -10.375 C 11.664062 -10.507812 11.75 -10.5625 11.875 -10.53125 Z M 5.28125 0.359375 C 5.71875 0.484375 6.144531 0.515625 6.5625 0.453125 C 6.988281 0.398438 7.382812 0.273438 7.75 0.078125 C 8.113281 -0.117188 8.425781 -0.378906 8.6875 -0.703125 C 8.945312 -1.035156 9.140625 -1.421875 9.265625 -1.859375 C 9.390625 -2.296875 9.421875 -2.722656 9.359375 -3.140625 C 9.304688 -3.554688 9.175781 -3.945312 8.96875 -4.3125 C 8.757812 -4.675781 8.492188 -4.988281 8.171875 -5.25 C 7.847656 -5.507812 7.46875 -5.703125 7.03125 -5.828125 C 6.613281 -5.941406 6.195312 -5.972656 5.78125 -5.921875 C 5.375 -5.867188 4.988281 -5.738281 4.625 -5.53125 C 4.269531 -5.332031 3.957031 -5.066406 3.6875 -4.734375 C 3.425781 -4.410156 3.234375 -4.03125 3.109375 -3.59375 C 2.984375 -3.15625 2.945312 -2.726562 3 -2.3125 C 3.0625 -1.894531 3.191406 -1.503906 3.390625 -1.140625 C 3.597656 -0.785156 3.859375 -0.472656 4.171875 -0.203125 C 4.492188 0.0546875 4.863281 0.242188 5.28125 0.359375 Z M 5.28125 0.359375 "/></g></g></g><g fill="#8c7251" fill-opacity="1"><g transform="translate(163.710646, 213.082198)"><g><path d="M 6.703125 -7.609375 C 7.296875 -7.492188 7.820312 -7.285156 8.28125 -6.984375 C 8.75 -6.679688 9.128906 -6.300781 9.421875 -5.84375 C 9.722656 -5.394531 9.925781 -4.90625 10.03125 -4.375 C 10.132812 -3.84375 10.125 -3.273438 10 -2.671875 C 9.976562 -2.546875 9.925781 -2.425781 9.84375 -2.3125 C 9.769531 -2.195312 9.675781 -2.101562 9.5625 -2.03125 C 9.445312 -1.957031 9.328125 -1.9375 9.203125 -1.96875 L 2.765625 -3.25 C 2.734375 -2.875 2.773438 -2.507812 2.890625 -2.15625 C 3.003906 -1.8125 3.175781 -1.488281 3.40625 -1.1875 C 3.632812 -0.894531 3.914062 -0.644531 4.25 -0.4375 C 4.582031 -0.238281 4.953125 -0.0976562 5.359375 -0.015625 C 5.753906 0.0546875 6.164062 0.0625 6.59375 0 C 7.03125 -0.0507812 7.429688 -0.1875 7.796875 -0.40625 C 7.859375 -0.4375 7.910156 -0.441406 7.953125 -0.421875 C 8.003906 -0.398438 8.050781 -0.363281 8.09375 -0.3125 L 8.4375 0.390625 C 8.46875 0.429688 8.472656 0.484375 8.453125 0.546875 C 8.441406 0.609375 8.40625 0.65625 8.34375 0.6875 C 8.03125 0.875 7.6875 1.015625 7.3125 1.109375 C 6.945312 1.210938 6.570312 1.269531 6.1875 1.28125 C 5.8125 1.300781 5.445312 1.273438 5.09375 1.203125 C 4.46875 1.078125 3.910156 0.847656 3.421875 0.515625 C 2.929688 0.191406 2.523438 -0.207031 2.203125 -0.6875 C 1.878906 -1.175781 1.65625 -1.707031 1.53125 -2.28125 C 1.414062 -2.863281 1.421875 -3.457031 1.546875 -4.0625 C 1.671875 -4.6875 1.890625 -5.242188 2.203125 -5.734375 C 2.523438 -6.222656 2.921875 -6.628906 3.390625 -6.953125 C 3.867188 -7.273438 4.390625 -7.492188 4.953125 -7.609375 C 5.515625 -7.734375 6.097656 -7.734375 6.703125 -7.609375 Z M 6.421875 -6.421875 C 5.929688 -6.515625 5.457031 -6.488281 5 -6.34375 C 4.539062 -6.207031 4.132812 -5.972656 3.78125 -5.640625 C 3.4375 -5.304688 3.175781 -4.90625 3 -4.4375 L 8.84375 -3.265625 C 8.875 -3.785156 8.796875 -4.265625 8.609375 -4.703125 C 8.429688 -5.140625 8.15625 -5.507812 7.78125 -5.8125 C 7.40625 -6.113281 6.953125 -6.316406 6.421875 -6.421875 Z M 6.421875 -6.421875 "/></g></g></g><g fill="#8c7251" fill-opacity="1"><g transform="translate(173.691433, 214.997535)"><g/></g></g><g fill="#8c7251" fill-opacity="1"><g transform="translate(178.874354, 215.805288)"><g><path d="M 1.078125 -4.21875 C 1.117188 -4.84375 1.28125 -5.421875 1.5625 -5.953125 C 1.84375 -6.484375 2.203125 -6.929688 2.640625 -7.296875 C 3.078125 -7.660156 3.578125 -7.929688 4.140625 -8.109375 C 4.710938 -8.296875 5.316406 -8.363281 5.953125 -8.3125 C 6.585938 -8.257812 7.160156 -8.097656 7.671875 -7.828125 C 8.191406 -7.554688 8.640625 -7.203125 9.015625 -6.765625 C 9.398438 -6.328125 9.679688 -5.828125 9.859375 -5.265625 C 10.046875 -4.703125 10.117188 -4.109375 10.078125 -3.484375 C 10.023438 -2.859375 9.859375 -2.285156 9.578125 -1.765625 C 9.304688 -1.242188 8.945312 -0.796875 8.5 -0.421875 C 8.0625 -0.0546875 7.5625 0.21875 7 0.40625 C 6.445312 0.59375 5.851562 0.660156 5.21875 0.609375 C 4.582031 0.554688 4 0.390625 3.46875 0.109375 C 2.945312 -0.160156 2.5 -0.515625 2.125 -0.953125 C 1.75 -1.398438 1.46875 -1.898438 1.28125 -2.453125 C 1.09375 -3.003906 1.023438 -3.59375 1.078125 -4.21875 Z M 2.390625 -4.109375 C 2.347656 -3.648438 2.390625 -3.21875 2.515625 -2.8125 C 2.640625 -2.414062 2.832031 -2.0625 3.09375 -1.75 C 3.363281 -1.4375 3.6875 -1.179688 4.0625 -0.984375 C 4.445312 -0.785156 4.863281 -0.671875 5.3125 -0.640625 C 5.769531 -0.597656 6.191406 -0.644531 6.578125 -0.78125 C 6.972656 -0.914062 7.328125 -1.113281 7.640625 -1.375 C 7.960938 -1.632812 8.21875 -1.953125 8.40625 -2.328125 C 8.601562 -2.710938 8.722656 -3.132812 8.765625 -3.59375 C 8.796875 -4.050781 8.742188 -4.476562 8.609375 -4.875 C 8.484375 -5.28125 8.285156 -5.640625 8.015625 -5.953125 C 7.753906 -6.273438 7.4375 -6.53125 7.0625 -6.71875 C 6.695312 -6.914062 6.285156 -7.035156 5.828125 -7.078125 C 5.378906 -7.109375 4.953125 -7.054688 4.546875 -6.921875 C 4.148438 -6.796875 3.789062 -6.597656 3.46875 -6.328125 C 3.15625 -6.066406 2.90625 -5.742188 2.71875 -5.359375 C 2.53125 -4.984375 2.421875 -4.566406 2.390625 -4.109375 Z M 2.390625 -4.109375 "/></g></g></g><g fill="#8c7251" fill-opacity="1"><g transform="translate(189.503837, 216.643192)"><g><path d="M 5.203125 0.21875 C 4.578125 0.207031 3.992188 0.0859375 3.453125 -0.140625 C 2.910156 -0.378906 2.4375 -0.707031 2.03125 -1.125 C 1.625 -1.539062 1.304688 -2.019531 1.078125 -2.5625 C 0.859375 -3.113281 0.75 -3.691406 0.75 -4.296875 C 0.757812 -4.921875 0.878906 -5.5 1.109375 -6.03125 C 1.347656 -6.570312 1.675781 -7.039062 2.09375 -7.4375 C 2.507812 -7.84375 2.984375 -8.160156 3.515625 -8.390625 C 4.054688 -8.617188 4.640625 -8.726562 5.265625 -8.71875 C 5.640625 -8.71875 6.015625 -8.664062 6.390625 -8.5625 C 6.765625 -8.457031 7.113281 -8.316406 7.4375 -8.140625 C 7.769531 -7.960938 8.054688 -7.757812 8.296875 -7.53125 C 8.347656 -7.488281 8.375 -7.4375 8.375 -7.375 C 8.375 -7.320312 8.359375 -7.273438 8.328125 -7.234375 L 7.890625 -6.5625 C 7.847656 -6.519531 7.796875 -6.492188 7.734375 -6.484375 C 7.679688 -6.472656 7.628906 -6.488281 7.578125 -6.53125 C 7.265625 -6.800781 6.910156 -7.019531 6.515625 -7.1875 C 6.128906 -7.351562 5.710938 -7.4375 5.265625 -7.4375 C 4.828125 -7.4375 4.414062 -7.359375 4.03125 -7.203125 C 3.65625 -7.046875 3.320312 -6.828125 3.03125 -6.546875 C 2.738281 -6.265625 2.507812 -5.929688 2.34375 -5.546875 C 2.175781 -5.160156 2.085938 -4.738281 2.078125 -4.28125 C 2.078125 -3.84375 2.15625 -3.429688 2.3125 -3.046875 C 2.476562 -2.660156 2.703125 -2.316406 2.984375 -2.015625 C 3.273438 -1.722656 3.609375 -1.488281 3.984375 -1.3125 C 4.367188 -1.132812 4.785156 -1.046875 5.234375 -1.046875 C 5.679688 -1.046875 6.101562 -1.125 6.5 -1.28125 C 6.894531 -1.4375 7.238281 -1.648438 7.53125 -1.921875 C 7.570312 -1.953125 7.617188 -1.96875 7.671875 -1.96875 C 7.734375 -1.96875 7.785156 -1.941406 7.828125 -1.890625 L 8.28125 -1.21875 C 8.3125 -1.175781 8.320312 -1.125 8.3125 -1.0625 C 8.3125 -1 8.285156 -0.945312 8.234375 -0.90625 C 7.960938 -0.675781 7.65625 -0.472656 7.3125 -0.296875 C 6.976562 -0.128906 6.628906 -0.00390625 6.265625 0.078125 C 5.910156 0.171875 5.554688 0.21875 5.203125 0.21875 Z M 5.203125 0.21875 "/></g></g></g><g fill="#8c7251" fill-opacity="1"><g transform="translate(198.725982, 216.719118)"><g><path d="M 5.203125 -0.140625 C 4.585938 -0.0976562 4 -0.175781 3.4375 -0.375 C 2.882812 -0.582031 2.390625 -0.878906 1.953125 -1.265625 C 1.515625 -1.648438 1.164062 -2.109375 0.90625 -2.640625 C 0.644531 -3.171875 0.5 -3.738281 0.46875 -4.34375 C 0.425781 -4.957031 0.503906 -5.539062 0.703125 -6.09375 C 0.898438 -6.644531 1.191406 -7.132812 1.578125 -7.5625 C 1.972656 -8 2.429688 -8.347656 2.953125 -8.609375 C 3.472656 -8.867188 4.039062 -9.019531 4.65625 -9.0625 C 5.03125 -9.082031 5.40625 -9.050781 5.78125 -8.96875 C 6.164062 -8.894531 6.523438 -8.78125 6.859375 -8.625 C 7.203125 -8.46875 7.503906 -8.285156 7.765625 -8.078125 C 7.828125 -8.035156 7.859375 -7.984375 7.859375 -7.921875 C 7.859375 -7.867188 7.84375 -7.820312 7.8125 -7.78125 L 7.421875 -7.0625 C 7.378906 -7.019531 7.328125 -6.992188 7.265625 -6.984375 C 7.210938 -6.972656 7.160156 -6.984375 7.109375 -7.015625 C 6.785156 -7.273438 6.421875 -7.472656 6.015625 -7.609375 C 5.617188 -7.742188 5.195312 -7.800781 4.75 -7.78125 C 4.3125 -7.75 3.910156 -7.640625 3.546875 -7.453125 C 3.179688 -7.273438 2.863281 -7.035156 2.59375 -6.734375 C 2.320312 -6.429688 2.113281 -6.082031 1.96875 -5.6875 C 1.820312 -5.289062 1.765625 -4.867188 1.796875 -4.421875 C 1.816406 -3.984375 1.921875 -3.578125 2.109375 -3.203125 C 2.304688 -2.828125 2.554688 -2.5 2.859375 -2.21875 C 3.160156 -1.945312 3.503906 -1.734375 3.890625 -1.578125 C 4.273438 -1.429688 4.691406 -1.375 5.140625 -1.40625 C 5.585938 -1.425781 6.003906 -1.53125 6.390625 -1.71875 C 6.773438 -1.90625 7.109375 -2.140625 7.390625 -2.421875 C 7.421875 -2.460938 7.460938 -2.484375 7.515625 -2.484375 C 7.578125 -2.484375 7.632812 -2.457031 7.6875 -2.40625 L 8.171875 -1.78125 C 8.203125 -1.738281 8.21875 -1.6875 8.21875 -1.625 C 8.21875 -1.5625 8.191406 -1.507812 8.140625 -1.46875 C 7.898438 -1.207031 7.613281 -0.984375 7.28125 -0.796875 C 6.957031 -0.609375 6.617188 -0.457031 6.265625 -0.34375 C 5.910156 -0.226562 5.554688 -0.160156 5.203125 -0.140625 Z M 5.203125 -0.140625 "/></g></g></g><g fill="#8c7251" fill-opacity="1"><g transform="translate(207.873315, 216.121435)"><g><path d="M 0.828125 -10.421875 C 0.597656 -10.398438 0.394531 -10.460938 0.21875 -10.609375 C 0.0390625 -10.753906 -0.0546875 -10.945312 -0.078125 -11.1875 C -0.109375 -11.425781 -0.0507812 -11.632812 0.09375 -11.8125 C 0.238281 -12 0.425781 -12.101562 0.65625 -12.125 C 0.90625 -12.15625 1.117188 -12.09375 1.296875 -11.9375 C 1.484375 -11.789062 1.59375 -11.597656 1.625 -11.359375 C 1.644531 -11.117188 1.578125 -10.910156 1.421875 -10.734375 C 1.273438 -10.554688 1.078125 -10.453125 0.828125 -10.421875 Z M 1.46875 -8.828125 C 1.601562 -8.835938 1.675781 -8.773438 1.6875 -8.640625 L 2.578125 -0.46875 C 2.585938 -0.332031 2.523438 -0.257812 2.390625 -0.25 L 1.5 -0.140625 C 1.382812 -0.128906 1.320312 -0.191406 1.3125 -0.328125 L 0.421875 -8.5 C 0.410156 -8.632812 0.460938 -8.707031 0.578125 -8.71875 Z M 1.46875 -8.828125 "/></g></g></g><g fill="#8c7251" fill-opacity="1"><g transform="translate(211.942645, 215.771)"><g><path d="M 7.15625 -14.71875 C 7.289062 -14.75 7.367188 -14.695312 7.390625 -14.5625 L 9.5 -1.78125 C 9.519531 -1.632812 9.460938 -1.546875 9.328125 -1.515625 L 8.8125 -1.4375 C 8.707031 -1.414062 8.640625 -1.457031 8.609375 -1.5625 L 8.0625 -3.1875 C 7.800781 -2.53125 7.398438 -1.972656 6.859375 -1.515625 C 6.328125 -1.054688 5.6875 -0.765625 4.9375 -0.640625 C 4.351562 -0.535156 3.785156 -0.554688 3.234375 -0.703125 C 2.679688 -0.847656 2.179688 -1.085938 1.734375 -1.421875 C 1.285156 -1.753906 0.910156 -2.164062 0.609375 -2.65625 C 0.304688 -3.15625 0.101562 -3.71875 0 -4.34375 C -0.101562 -4.988281 -0.09375 -5.597656 0.03125 -6.171875 C 0.15625 -6.742188 0.375 -7.257812 0.6875 -7.71875 C 1 -8.1875 1.390625 -8.570312 1.859375 -8.875 C 2.335938 -9.175781 2.867188 -9.378906 3.453125 -9.484375 C 4.171875 -9.597656 4.847656 -9.539062 5.484375 -9.3125 C 6.128906 -9.082031 6.679688 -8.707031 7.140625 -8.1875 L 6.109375 -14.34375 C 6.085938 -14.476562 6.144531 -14.554688 6.28125 -14.578125 Z M 4.953125 -1.921875 C 5.390625 -1.992188 5.785156 -2.144531 6.140625 -2.375 C 6.492188 -2.601562 6.789062 -2.882812 7.03125 -3.21875 C 7.28125 -3.550781 7.453125 -3.921875 7.546875 -4.328125 C 7.648438 -4.742188 7.664062 -5.171875 7.59375 -5.609375 C 7.519531 -6.066406 7.367188 -6.472656 7.140625 -6.828125 C 6.910156 -7.179688 6.625 -7.476562 6.28125 -7.71875 C 5.945312 -7.957031 5.578125 -8.125 5.171875 -8.21875 C 4.765625 -8.320312 4.34375 -8.335938 3.90625 -8.265625 C 3.46875 -8.191406 3.070312 -8.039062 2.71875 -7.8125 C 2.375 -7.59375 2.082031 -7.316406 1.84375 -6.984375 C 1.601562 -6.648438 1.429688 -6.273438 1.328125 -5.859375 C 1.222656 -5.453125 1.207031 -5.019531 1.28125 -4.5625 C 1.351562 -4.125 1.503906 -3.726562 1.734375 -3.375 C 1.960938 -3.019531 2.242188 -2.722656 2.578125 -2.484375 C 2.910156 -2.242188 3.28125 -2.070312 3.6875 -1.96875 C 4.09375 -1.863281 4.515625 -1.847656 4.953125 -1.921875 Z M 4.953125 -1.921875 "/></g></g></g><g fill="#8c7251" fill-opacity="1"><g transform="translate(222.983351, 213.926167)"><g><path d="M 2.828125 -9.75 C 3.410156 -9.894531 3.976562 -9.925781 4.53125 -9.84375 C 5.082031 -9.769531 5.585938 -9.59375 6.046875 -9.3125 C 6.503906 -9.03125 6.894531 -8.671875 7.21875 -8.234375 C 7.550781 -7.796875 7.789062 -7.273438 7.9375 -6.671875 C 7.96875 -6.546875 7.96875 -6.414062 7.9375 -6.28125 C 7.914062 -6.144531 7.867188 -6.019531 7.796875 -5.90625 C 7.722656 -5.789062 7.625 -5.722656 7.5 -5.703125 L 1.125 -4.125 C 1.25 -3.769531 1.4375 -3.457031 1.6875 -3.1875 C 1.9375 -2.914062 2.226562 -2.691406 2.5625 -2.515625 C 2.894531 -2.347656 3.257812 -2.242188 3.65625 -2.203125 C 4.050781 -2.160156 4.453125 -2.191406 4.859375 -2.296875 C 5.242188 -2.390625 5.617188 -2.554688 5.984375 -2.796875 C 6.347656 -3.035156 6.648438 -3.328125 6.890625 -3.671875 C 6.929688 -3.722656 6.976562 -3.75 7.03125 -3.75 C 7.082031 -3.757812 7.132812 -3.75 7.1875 -3.71875 L 7.796875 -3.234375 C 7.847656 -3.203125 7.875 -3.15625 7.875 -3.09375 C 7.882812 -3.03125 7.867188 -2.972656 7.828125 -2.921875 C 7.640625 -2.628906 7.398438 -2.359375 7.109375 -2.109375 C 6.816406 -1.859375 6.5 -1.640625 6.15625 -1.453125 C 5.8125 -1.273438 5.460938 -1.144531 5.109375 -1.0625 C 4.492188 -0.90625 3.894531 -0.875 3.3125 -0.96875 C 2.726562 -1.070312 2.1875 -1.273438 1.6875 -1.578125 C 1.1875 -1.878906 0.757812 -2.265625 0.40625 -2.734375 C 0.0625 -3.203125 -0.179688 -3.734375 -0.328125 -4.328125 C -0.472656 -4.941406 -0.503906 -5.535156 -0.421875 -6.109375 C -0.347656 -6.691406 -0.164062 -7.234375 0.125 -7.734375 C 0.414062 -8.234375 0.785156 -8.65625 1.234375 -9 C 1.691406 -9.351562 2.222656 -9.601562 2.828125 -9.75 Z M 3.09375 -8.53125 C 2.601562 -8.414062 2.175781 -8.195312 1.8125 -7.875 C 1.457031 -7.5625 1.195312 -7.175781 1.03125 -6.71875 C 0.863281 -6.269531 0.796875 -5.796875 0.828125 -5.296875 L 6.609375 -6.71875 C 6.421875 -7.195312 6.148438 -7.597656 5.796875 -7.921875 C 5.453125 -8.242188 5.046875 -8.457031 4.578125 -8.5625 C 4.109375 -8.675781 3.613281 -8.664062 3.09375 -8.53125 Z M 3.09375 -8.53125 "/></g></g></g><g fill="#8c7251" fill-opacity="1"><g transform="translate(232.902848, 211.472709)"><g><path d="M 2.625 -10.125 C 3.25 -10.332031 3.847656 -10.378906 4.421875 -10.265625 C 4.992188 -10.148438 5.5 -9.882812 5.9375 -9.46875 C 6.375 -9.0625 6.703125 -8.519531 6.921875 -7.84375 L 8.515625 -3.015625 C 8.554688 -2.878906 8.507812 -2.785156 8.375 -2.734375 L 7.546875 -2.46875 C 7.410156 -2.425781 7.320312 -2.472656 7.28125 -2.609375 L 5.71875 -7.359375 C 5.570312 -7.804688 5.34375 -8.164062 5.03125 -8.4375 C 4.71875 -8.71875 4.359375 -8.898438 3.953125 -8.984375 C 3.546875 -9.066406 3.113281 -9.035156 2.65625 -8.890625 C 2.300781 -8.773438 1.988281 -8.597656 1.71875 -8.359375 C 1.457031 -8.128906 1.242188 -7.867188 1.078125 -7.578125 C 0.910156 -7.296875 0.804688 -6.988281 0.765625 -6.65625 C 0.734375 -6.332031 0.769531 -6.007812 0.875 -5.6875 L 2.421875 -0.984375 C 2.460938 -0.859375 2.414062 -0.773438 2.28125 -0.734375 L 1.453125 -0.46875 C 1.328125 -0.425781 1.242188 -0.46875 1.203125 -0.59375 L -1.359375 -8.390625 C -1.398438 -8.523438 -1.359375 -8.613281 -1.234375 -8.65625 L -0.75 -8.8125 C -0.632812 -8.84375 -0.546875 -8.816406 -0.484375 -8.734375 L 0.1875 -7.359375 C 0.25 -7.753906 0.390625 -8.132812 0.609375 -8.5 C 0.835938 -8.875 1.117188 -9.203125 1.453125 -9.484375 C 1.796875 -9.765625 2.1875 -9.976562 2.625 -10.125 Z M 2.625 -10.125 "/></g></g></g><g fill="#8c7251" fill-opacity="1"><g transform="translate(242.781706, 208.146265)"><g><path d="M 4.203125 -2.796875 C 4.273438 -2.828125 4.34375 -2.832031 4.40625 -2.8125 C 4.476562 -2.789062 4.523438 -2.75 4.546875 -2.6875 L 4.828125 -2 C 4.847656 -1.925781 4.835938 -1.859375 4.796875 -1.796875 C 4.765625 -1.742188 4.710938 -1.703125 4.640625 -1.671875 C 4.054688 -1.429688 3.5 -1.335938 2.96875 -1.390625 C 2.4375 -1.441406 1.957031 -1.625 1.53125 -1.9375 C 1.113281 -2.257812 0.789062 -2.710938 0.5625 -3.296875 L -1.15625 -7.625 L -2.25 -7.203125 C -2.375 -7.148438 -2.460938 -7.179688 -2.515625 -7.296875 L -2.765625 -7.9375 C -2.816406 -8.0625 -2.78125 -8.148438 -2.65625 -8.203125 L -1.5625 -8.625 L -2.515625 -11 C -2.554688 -11.113281 -2.53125 -11.210938 -2.4375 -11.296875 L -1.6875 -11.8125 C -1.550781 -11.894531 -1.457031 -11.867188 -1.40625 -11.734375 L -0.359375 -9.109375 L 1.359375 -9.796875 C 1.484375 -9.847656 1.570312 -9.816406 1.625 -9.703125 L 1.875 -9.046875 C 1.925781 -8.929688 1.890625 -8.847656 1.765625 -8.796875 L 0.046875 -8.109375 L 1.78125 -3.765625 C 1.914062 -3.429688 2.109375 -3.164062 2.359375 -2.96875 C 2.609375 -2.78125 2.890625 -2.671875 3.203125 -2.640625 C 3.523438 -2.609375 3.859375 -2.660156 4.203125 -2.796875 Z M 4.203125 -2.796875 "/></g></g></g><g fill="#8c7251" fill-opacity="1"><g transform="translate(248.627893, 205.87506)"><g><path d="M 0.859375 -10.09375 C 1.410156 -10.351562 1.960938 -10.5 2.515625 -10.53125 C 3.066406 -10.5625 3.59375 -10.484375 4.09375 -10.296875 C 4.601562 -10.117188 5.054688 -9.84375 5.453125 -9.46875 C 5.859375 -9.101562 6.191406 -8.644531 6.453125 -8.09375 C 6.515625 -7.96875 6.546875 -7.835938 6.546875 -7.703125 C 6.546875 -7.578125 6.519531 -7.453125 6.46875 -7.328125 C 6.414062 -7.203125 6.332031 -7.113281 6.21875 -7.0625 L 0.28125 -4.265625 C 0.488281 -3.941406 0.738281 -3.671875 1.03125 -3.453125 C 1.332031 -3.242188 1.660156 -3.085938 2.015625 -2.984375 C 2.378906 -2.878906 2.757812 -2.84375 3.15625 -2.875 C 3.550781 -2.914062 3.9375 -3.03125 4.3125 -3.21875 C 4.664062 -3.382812 5 -3.617188 5.3125 -3.921875 C 5.625 -4.222656 5.863281 -4.566406 6.03125 -4.953125 C 6.050781 -5.015625 6.085938 -5.050781 6.140625 -5.0625 C 6.203125 -5.082031 6.257812 -5.082031 6.3125 -5.0625 L 7.015625 -4.6875 C 7.066406 -4.675781 7.101562 -4.640625 7.125 -4.578125 C 7.144531 -4.523438 7.140625 -4.46875 7.109375 -4.40625 C 6.984375 -4.070312 6.800781 -3.753906 6.5625 -3.453125 C 6.320312 -3.160156 6.050781 -2.890625 5.75 -2.640625 C 5.445312 -2.398438 5.128906 -2.203125 4.796875 -2.046875 C 4.222656 -1.773438 3.640625 -1.628906 3.046875 -1.609375 C 2.460938 -1.585938 1.894531 -1.671875 1.34375 -1.859375 C 0.800781 -2.054688 0.3125 -2.351562 -0.125 -2.75 C -0.5625 -3.15625 -0.910156 -3.632812 -1.171875 -4.1875 C -1.441406 -4.757812 -1.59375 -5.332031 -1.625 -5.90625 C -1.65625 -6.488281 -1.578125 -7.050781 -1.390625 -7.59375 C -1.210938 -8.144531 -0.929688 -8.632812 -0.546875 -9.0625 C -0.160156 -9.488281 0.304688 -9.832031 0.859375 -10.09375 Z M 1.34375 -8.984375 C 0.894531 -8.765625 0.53125 -8.460938 0.25 -8.078125 C -0.0273438 -7.703125 -0.210938 -7.273438 -0.296875 -6.796875 C -0.378906 -6.316406 -0.359375 -5.835938 -0.234375 -5.359375 L 5.15625 -7.890625 C 4.894531 -8.316406 4.554688 -8.65625 4.140625 -8.90625 C 3.722656 -9.15625 3.273438 -9.285156 2.796875 -9.296875 C 2.316406 -9.316406 1.832031 -9.210938 1.34375 -8.984375 Z M 1.34375 -8.984375 "/></g></g></g></g></g></g></g></g></svg>